<?xml version="1.0" encoding="utf-8"?>
<!-- Generator: Adobe Illustrator 17.0.2, SVG Export Plug-In . SVG Version: 6.00 Build 0)  -->
<svg version="1.2" baseProfile="tiny" id="Laag_1" xmlns="http://www.w3.org/2000/svg" xmlns:xlink="http://www.w3.org/1999/xlink"
	 x="0px" y="0px" width="595.28px" height="294.483px" viewBox="0 0 595.28 294.483" xml:space="preserve">
<g>
	<path fill="#FFFFFF" d="M30.794,274.691c0,1.465,0.117,2.798,0.351,3.998c0.233,1.201,0.673,2.212,1.318,3.031
		c0.644,0.821,1.507,1.465,2.592,1.934c1.083,0.469,2.445,0.702,4.086,0.702c1.933,0,3.675-0.629,5.228-1.889
		c1.551-1.259,2.328-3.207,2.328-5.843c0-1.406-0.19-2.621-0.571-3.646c-0.382-1.024-1.011-1.947-1.889-2.769
		c-0.879-0.819-2.036-1.566-3.471-2.24c-1.436-0.673-3.207-1.362-5.316-2.064c-2.812-0.937-5.243-1.962-7.293-3.075
		c-2.051-1.112-3.765-2.417-5.14-3.91c-1.377-1.494-2.387-3.221-3.031-5.185c-0.646-1.962-0.967-4.231-0.967-6.81
		c0-6.208,1.727-10.836,5.184-13.883c3.456-3.045,8.201-4.568,14.234-4.568c2.812,0,5.404,0.307,7.776,0.922
		c2.372,0.615,4.422,1.612,6.15,2.987c1.727,1.377,3.075,3.135,4.042,5.272c0.966,2.139,1.45,4.701,1.45,7.688v1.757H45.731
		c0-2.987-0.527-5.285-1.582-6.897c-1.055-1.61-2.812-2.416-5.272-2.416c-1.406,0-2.579,0.206-3.515,0.615
		c-0.938,0.41-1.685,0.952-2.241,1.625c-0.557,0.674-0.938,1.45-1.142,2.329c-0.206,0.878-0.308,1.787-0.308,2.724
		c0,1.933,0.409,3.559,1.23,4.876c0.82,1.318,2.577,2.535,5.272,3.646l9.753,4.218c2.401,1.055,4.363,2.152,5.887,3.295
		c1.522,1.143,2.738,2.372,3.646,3.69c0.908,1.318,1.538,2.768,1.889,4.35c0.352,1.581,0.527,3.339,0.527,5.271
		c0,6.62-1.919,11.438-5.755,14.454c-3.837,3.018-9.182,4.525-16.036,4.525c-7.147,0-12.257-1.552-15.333-4.657
		c-3.075-3.104-4.613-7.557-4.613-13.355v-2.548h12.653V274.691z"/>
	<path fill="#FFFFFF" d="M78.065,273.461c0,1.582,0.102,3.032,0.307,4.35c0.205,1.318,0.585,2.461,1.143,3.427
		c0.556,0.967,1.318,1.729,2.284,2.285c0.967,0.557,2.182,0.834,3.646,0.834c1.522,0,2.753-0.277,3.69-0.834
		c0.937-0.557,1.683-1.318,2.241-2.285c0.556-0.966,0.936-2.108,1.142-3.427c0.205-1.317,0.308-2.768,0.308-4.35v-43.757h12.653
		v43.757c0,3.984-0.558,7.279-1.669,9.886c-1.114,2.606-2.607,4.672-4.481,6.194c-1.875,1.523-4.013,2.548-6.414,3.075
		c-2.403,0.527-4.892,0.791-7.469,0.791c-2.578,0-5.067-0.235-7.468-0.703c-2.403-0.468-4.541-1.42-6.415-2.855
		c-1.875-1.435-3.369-3.471-4.481-6.106c-1.113-2.637-1.669-6.063-1.669-10.281v-43.757h12.653V273.461z"/>
	<path fill="#FFFFFF" d="M135.617,229.704c3.221,0,5.931,0.542,8.127,1.626s3.968,2.504,5.316,4.261
		c1.347,1.758,2.313,3.765,2.899,6.02c0.585,2.256,0.879,4.555,0.879,6.897c0,3.222-0.483,6.033-1.45,8.435
		c-0.966,2.403-2.314,4.364-4.042,5.888c-1.729,1.523-3.822,2.666-6.283,3.427c-2.46,0.762-5.184,1.142-8.171,1.142h-6.766v25.042
		h-12.653v-62.736H135.617z M131.751,258.085c2.518,0,4.554-0.761,6.106-2.284c1.552-1.522,2.329-3.896,2.329-7.117
		c0-3.163-0.674-5.564-2.021-7.205c-1.348-1.64-3.603-2.461-6.766-2.461h-5.272v19.067H131.751z"/>
	<path fill="#FFFFFF" d="M194.135,240.072h-22.406v14.762h21.088v10.368h-21.088v16.87h23.285v10.368h-35.938v-62.736h35.059
		V240.072z"/>
	<path fill="#FFFFFF" d="M224.711,229.704c5.272,0,9.372,1.333,12.301,3.998c2.928,2.666,4.393,6.722,4.393,12.169
		c0,4.218-0.85,7.66-2.548,10.325c-1.7,2.666-4.336,4.379-7.908,5.14v0.176c3.163,0.47,5.477,1.494,6.941,3.075
		c1.464,1.582,2.373,4.13,2.724,7.645c0.117,1.172,0.205,2.446,0.264,3.822c0.058,1.377,0.117,2.914,0.175,4.612
		c0.117,3.339,0.292,5.888,0.527,7.645c0.352,1.758,1.112,2.959,2.285,3.603v0.527h-13.707c-0.646-0.879-1.055-1.889-1.23-3.031
		c-0.175-1.143-0.293-2.328-0.351-3.559l-0.352-12.038c-0.118-2.46-0.733-4.393-1.845-5.799c-1.113-1.406-2.987-2.108-5.624-2.108
		h-6.766v26.535h-12.653v-62.736H224.711z M219.263,257.118c3.045,0,5.389-0.717,7.029-2.152c1.639-1.435,2.46-3.852,2.46-7.249
		c0-5.799-2.93-8.699-8.787-8.699h-5.975v18.101H219.263z"/>
	<path fill="#FFFFFF" d="M260.385,274.691c0,1.465,0.117,2.798,0.351,3.998c0.233,1.201,0.673,2.212,1.318,3.031
		c0.644,0.821,1.507,1.465,2.592,1.934c1.083,0.469,2.445,0.702,4.086,0.702c1.933,0,3.675-0.629,5.228-1.889
		c1.551-1.259,2.328-3.207,2.328-5.843c0-1.406-0.19-2.621-0.571-3.646c-0.382-1.024-1.011-1.947-1.889-2.769
		c-0.879-0.819-2.036-1.566-3.471-2.24c-1.436-0.673-3.207-1.362-5.316-2.064c-2.812-0.937-5.243-1.962-7.293-3.075
		c-2.051-1.112-3.765-2.417-5.14-3.91c-1.377-1.494-2.387-3.221-3.031-5.185c-0.646-1.962-0.967-4.231-0.967-6.81
		c0-6.208,1.727-10.836,5.184-13.883c3.456-3.045,8.201-4.568,14.234-4.568c2.812,0,5.404,0.307,7.776,0.922
		c2.372,0.615,4.422,1.612,6.15,2.987c1.727,1.377,3.075,3.135,4.042,5.272c0.966,2.139,1.45,4.701,1.45,7.688v1.757h-12.125
		c0-2.987-0.527-5.285-1.582-6.897c-1.055-1.61-2.812-2.416-5.272-2.416c-1.406,0-2.579,0.206-3.515,0.615
		c-0.938,0.41-1.685,0.952-2.241,1.625c-0.557,0.674-0.938,1.45-1.142,2.329c-0.206,0.878-0.308,1.787-0.308,2.724
		c0,1.933,0.409,3.559,1.23,4.876c0.82,1.318,2.577,2.535,5.272,3.646l9.753,4.218c2.401,1.055,4.363,2.152,5.887,3.295
		c1.522,1.143,2.738,2.372,3.646,3.69c0.908,1.318,1.538,2.768,1.889,4.35c0.352,1.581,0.527,3.339,0.527,5.271
		c0,6.62-1.919,11.438-5.755,14.454c-3.837,3.018-9.182,4.525-16.036,4.525c-7.147,0-12.257-1.552-15.333-4.657
		c-3.075-3.104-4.613-7.557-4.613-13.355v-2.548h12.653V274.691z"/>
	<path fill="#FFFFFF" d="M332.522,240.072h-13.707v52.368h-12.652v-52.368h-13.708v-10.368h40.067V240.072z"/>
	<path fill="#FFFFFF" d="M360.991,229.704l16.606,62.736h-13.18l-2.899-13.268h-16.695l-2.899,13.268h-13.18l16.606-62.736H360.991z
		 M359.321,268.804l-6.062-28.205h-0.176l-6.062,28.205H359.321z"/>
	<path fill="#FFFFFF" d="M381.991,229.704h12.652v52.368h22.406v10.368h-35.059V229.704z"/>
	<path fill="#FFFFFF" d="M422.672,229.704h12.652v52.368h22.406v10.368h-35.059V229.704z"/>
	<path fill="#FFFFFF" d="M463.969,229.704h12.652v62.736h-12.652V229.704z"/>
	<path fill="#FFFFFF" d="M515.897,272.671h0.176v-42.967h11.599v62.736h-14.41l-15.465-43.933h-0.176v43.933h-11.598v-62.736h14.586
		L515.897,272.671z"/>
	<path fill="#FFFFFF" d="M563.916,244.729c-0.264-1.23-0.689-2.357-1.274-3.383c-0.586-1.024-1.333-1.874-2.24-2.548
		c-0.909-0.673-2.008-1.011-3.295-1.011c-3.047,0-5.243,1.699-6.59,5.096c-1.349,3.398-2.021,9.021-2.021,16.87
		c0,3.75,0.117,7.147,0.352,10.193c0.233,3.046,0.659,5.638,1.274,7.775c0.615,2.14,1.493,3.778,2.636,4.921
		s2.621,1.713,4.438,1.713c0.761,0,1.595-0.204,2.504-0.614c0.907-0.409,1.757-1.024,2.548-1.846
		c0.791-0.819,1.45-1.858,1.978-3.119c0.527-1.259,0.79-2.737,0.79-4.438v-6.414h-8.347v-9.313h20.473v33.828h-9.313v-5.799h-0.176
		c-1.524,2.46-3.354,4.203-5.492,5.228c-2.139,1.024-4.7,1.538-7.688,1.538c-3.866,0-7.016-0.675-9.446-2.021
		c-2.432-1.347-4.335-3.427-5.711-6.238c-1.377-2.812-2.3-6.282-2.768-10.412c-0.47-4.13-0.703-8.918-0.703-14.366
		c0-5.271,0.336-9.898,1.011-13.883c0.672-3.982,1.83-7.307,3.471-9.973c1.639-2.665,3.807-4.671,6.502-6.019
		c2.693-1.347,6.062-2.021,10.104-2.021c6.911,0,11.891,1.713,14.937,5.14s4.569,8.334,4.569,14.718h-12.125
		C564.311,247.161,564.179,245.959,563.916,244.729z"/>
</g>
<g>
	<path fill="#FFFFFF" d="M297.181,34.292c-49.707,0.182-73.795,14.881-76.804,16.853c-0.012,5.082-0.022,10.105-0.025,14.976
		c2.915-1.915,27.003-16.687,76.83-16.869h0.918c49.827,0.182,73.915,14.954,76.83,16.869c-0.003-4.871-0.014-9.894-0.025-14.976
		c-3.01-1.972-27.097-16.671-76.804-16.853H297.181z"/>
	<path fill="#FFFFFF" d="M297.181,19.252h0.918c49.539,0.181,73.628,14.779,76.769,16.83c-0.01-4.958-0.018-9.886-0.018-14.696
		c0,0-23.737-16.797-76.753-16.991V4.385c-0.155,0-0.302,0.004-0.457,0.005c-0.154,0-0.302-0.005-0.457-0.005v0.009
		c-53.017,0.194-76.753,16.991-76.753,16.991c0,4.81-0.007,9.738-0.018,14.696C223.554,34.031,247.642,19.433,297.181,19.252z"/>
	<path fill="#FFFFFF" d="M298.099,64.292h-0.918c-49.74,0.182-73.828,14.901-76.811,16.857c0.066,17.497,0.318,31.073,1.06,34.994
		c13.672,72.229,68.071,86.55,75.753,88.224v0.185c0,0,0.161-0.028,0.457-0.088c0.296,0.06,0.457,0.088,0.457,0.088v-0.185
		c7.682-1.674,62.081-15.995,75.753-88.224c0.742-3.921,0.995-17.497,1.06-34.994C371.927,79.193,347.839,64.474,298.099,64.292z
		 M258.537,83.195c0,0,2.985,0.189,4.777,1.261c4.449,2.661,10.899,3.393,13.509,3.587c7.716-1.73,15.95-2.268,21.94,0.769
		l0.649,1.456c0,0-10.039-6.481-44.821,8.957l0.004-0.036l-5.12-9.187h13.278L258.537,83.195z M246.09,108.048
		c0,0,49.669-25.21,75.522-12.101l1.124,2.521c0,0-17.001-11.345-77.208,15.378L246.09,108.048z M346.622,134.898H243.21
		l1.967-17.269c49.528-20.673,121.678-19.916,121.678-19.916C358.636,108.301,346.622,134.898,346.622,134.898z"/>
</g>
</svg>
