<?xml version="1.0" encoding="utf-8"?>
<!-- Generator: Adobe Illustrator 17.0.2, SVG Export Plug-In . SVG Version: 6.00 Build 0)  -->
<svg version="1.2" baseProfile="tiny" id="Laag_1" xmlns="http://www.w3.org/2000/svg" xmlns:xlink="http://www.w3.org/1999/xlink"
	 x="0px" y="0px" width="595.28px" height="841.89px" viewBox="0 0 595.28 841.89" xml:space="preserve">
<g>
	<g>
		<path fill="#FFFEF8" d="M57.738,127.767c0.487,1.188,1.024,2.231,1.614,3.126c0.588,0.897,1.281,1.571,2.077,2.021
			c0.795,0.452,1.709,0.688,2.745,0.707c1.035,0.021,2.217-0.242,3.548-0.787c1.568-0.643,2.773-1.731,3.614-3.27
			c0.84-1.537,0.824-3.375-0.052-5.514c-0.467-1.141-1.026-2.063-1.675-2.769c-0.65-0.704-1.467-1.244-2.453-1.618
			c-0.985-0.373-2.172-0.594-3.56-0.665c-1.389-0.068-3.055-0.039-4.999,0.091c-2.593,0.175-4.906,0.15-6.939-0.072
			c-2.034-0.221-3.857-0.709-5.47-1.464c-1.613-0.754-3.007-1.82-4.182-3.199c-1.175-1.377-2.19-3.112-3.047-5.204
			c-2.062-5.037-2.199-9.366-0.407-12.986c1.792-3.619,5.135-6.432,10.03-8.437c2.281-0.934,4.486-1.546,6.616-1.835
			c2.129-0.289,4.123-0.162,5.982,0.38c1.859,0.543,3.537,1.521,5.031,2.934c1.495,1.414,2.738,3.332,3.731,5.756l0.584,1.426
			l-9.838,4.029c-0.993-2.424-2.184-4.113-3.575-5.071c-1.39-0.956-3.084-1.026-5.08-0.208c-1.141,0.467-2.023,1.024-2.647,1.667
			c-0.625,0.645-1.05,1.333-1.278,2.063c-0.228,0.732-0.279,1.488-0.153,2.269c0.125,0.781,0.344,1.552,0.655,2.312
			c0.643,1.568,1.515,2.751,2.619,3.547c1.103,0.797,2.933,1.2,5.489,1.207l9.314,0.181c2.298,0.058,4.255,0.297,5.871,0.717
			c1.615,0.421,3.009,1.015,4.185,1.782c1.174,0.768,2.167,1.735,2.978,2.901c0.811,1.166,1.537,2.534,2.18,4.102
			c2.2,5.371,2.243,9.917,0.133,13.639c-2.11,3.723-5.946,6.722-11.506,9c-5.799,2.375-10.46,2.814-13.987,1.316
			c-3.526-1.497-6.253-4.598-8.18-9.303l-0.847-2.067l10.265-4.204L57.738,127.767z"/>
		<path fill="#FFFEF8" d="M98.952,111.433c0.398,1.329,0.849,2.521,1.354,3.575c0.503,1.056,1.11,1.919,1.822,2.59
			c0.71,0.672,1.542,1.12,2.494,1.343c0.952,0.225,2.042,0.152,3.272-0.217c1.279-0.383,2.242-0.926,2.889-1.63
			c0.646-0.703,1.082-1.531,1.307-2.483c0.224-0.952,0.255-2.007,0.096-3.166c-0.16-1.158-0.438-2.401-0.836-3.73L100.333,70.97
			l10.625-3.186l11.017,36.748c1.003,3.346,1.364,6.253,1.086,8.722c-0.279,2.47-1.013,4.58-2.204,6.33
			c-1.191,1.752-2.729,3.15-4.612,4.198c-1.885,1.047-3.909,1.896-6.073,2.544c-2.165,0.649-4.314,1.079-6.449,1.29
			c-2.136,0.211-4.17-0.049-6.106-0.784c-1.936-0.732-3.703-2.066-5.301-4c-1.599-1.934-2.928-4.671-3.99-8.213L77.31,77.871
			l10.626-3.186L98.952,111.433z"/>
		<path fill="#FFFEF8" d="M141.985,60.691c2.76-0.596,5.183-0.633,7.266-0.111c2.083,0.523,3.864,1.412,5.344,2.668
			c1.479,1.257,2.679,2.798,3.599,4.622c0.918,1.825,1.596,3.741,2.029,5.748c0.596,2.762,0.702,5.261,0.318,7.497
			c-0.384,2.238-1.176,4.169-2.375,5.793c-1.199,1.626-2.782,2.992-4.75,4.099c-1.967,1.108-4.231,1.938-6.792,2.491l-5.798,1.252
			l4.633,21.46l-10.843,2.341l-11.608-53.764L141.985,60.691z M143.923,85.728c2.158-0.466,3.762-1.495,4.811-3.088
			c1.048-1.592,1.275-3.769,0.679-6.53c-0.585-2.711-1.607-4.644-3.065-5.801c-1.459-1.155-3.542-1.442-6.253-0.856l-4.518,0.975
			l3.528,16.34L143.923,85.728z"/>
		<path fill="#FFFEF8" d="M198.209,60.312l-19.427,2.911l1.917,12.799l18.284-2.739l1.347,8.99l-18.285,2.739l2.192,14.627
			l20.189-3.025l1.347,8.99l-31.16,4.668l-8.149-54.396l30.397-4.554L198.209,60.312z"/>
		<path fill="#FFFEF8" d="M227.562,48.222c4.604-0.416,8.288,0.425,11.057,2.521c2.767,2.097,4.366,5.523,4.796,10.279
			c0.333,3.683-0.138,6.755-1.411,9.216c-1.274,2.462-3.44,4.166-6.5,5.112l0.014,0.153c2.799,0.161,4.9,0.873,6.304,2.138
			c1.402,1.266,2.397,3.419,2.981,6.46c0.194,1.014,0.372,2.12,0.532,3.316c0.159,1.198,0.332,2.536,0.517,4.014
			c0.365,2.906,0.72,5.117,1.063,6.633c0.445,1.507,1.205,2.496,2.279,2.965l0.042,0.46l-11.969,1.081
			c-0.632-0.717-1.069-1.566-1.313-2.55c-0.244-0.983-0.44-2.01-0.587-3.08l-1.256-10.483c-0.297-2.139-0.986-3.778-2.068-4.918
			c-1.083-1.14-2.775-1.606-5.076-1.398l-5.908,0.534l2.092,23.17l-11.048,0.998l-4.947-54.78L227.562,48.222z M224.967,72.589
			c2.659-0.24,4.649-1.05,5.968-2.434c1.318-1.382,1.845-3.557,1.577-6.524c-0.457-5.063-3.244-7.364-8.358-6.902l-5.217,0.471
			l1.427,15.805L224.967,72.589z"/>
		<path fill="#FFFEF8" d="M263.871,85.347c0.046,1.284,0.19,2.448,0.434,3.492c0.243,1.045,0.66,1.917,1.251,2.614
			c0.59,0.699,1.367,1.236,2.332,1.612c0.964,0.377,2.165,0.539,3.602,0.487c1.694-0.062,3.2-0.667,4.521-1.821
			c1.319-1.152,1.938-2.883,1.855-5.193c-0.044-1.232-0.25-2.291-0.616-3.177c-0.367-0.885-0.947-1.674-1.743-2.365
			c-0.795-0.69-1.833-1.308-3.112-1.854c-1.279-0.544-2.853-1.092-4.723-1.641c-2.493-0.731-4.656-1.553-6.487-2.464
			c-1.833-0.91-3.375-1.998-4.627-3.263c-1.254-1.265-2.194-2.747-2.82-4.446c-0.627-1.699-0.981-3.677-1.062-5.936
			c-0.197-5.439,1.17-9.549,4.103-12.328c2.931-2.777,7.04-4.263,12.327-4.454c2.464-0.089,4.745,0.099,6.842,0.562
			c2.098,0.464,3.926,1.272,5.483,2.423c1.557,1.152,2.794,2.649,3.708,4.492c0.915,1.843,1.419,4.073,1.514,6.69l0.056,1.54
			l-10.624,0.383c-0.095-2.618-0.629-4.614-1.604-5.993c-0.975-1.378-2.54-2.028-4.695-1.951c-1.232,0.044-2.252,0.262-3.06,0.65
			c-0.809,0.389-1.446,0.888-1.912,1.495c-0.467,0.608-0.776,1.3-0.927,2.076c-0.152,0.776-0.213,1.576-0.183,2.396
			c0.061,1.694,0.471,3.105,1.232,4.234c0.76,1.129,2.338,2.139,4.734,3.028l8.679,3.387c2.137,0.848,3.891,1.748,5.262,2.701
			c1.37,0.953,2.474,1.992,3.312,3.118c0.837,1.126,1.435,2.376,1.792,3.751s0.568,2.909,0.629,4.602
			c0.209,5.801-1.32,10.082-4.585,12.846c-3.267,2.765-7.902,4.255-13.907,4.472c-6.262,0.226-10.789-0.972-13.581-3.595
			c-2.792-2.623-4.281-6.475-4.464-11.556l-0.081-2.232l11.085-0.4L263.871,85.347z"/>
		<path fill="#FFFEF8" d="M328.893,54.494l-12.018-0.149l-0.57,45.909l-11.092-0.138l0.57-45.909l-12.016-0.149l0.113-9.089
			l35.125,0.437L328.893,54.494z"/>
		<path fill="#FFFEF8" d="M357.12,46.98l11.301,55.764l-11.535-0.679l-1.854-11.762l-14.611-0.86l-3.222,11.463l-11.535-0.679
			l17.768-54.052L357.12,46.98z M353.643,81.116l-3.853-24.998l-0.153-0.009l-6.76,24.373L353.643,81.116z"/>
		<path fill="#FFFEF8" d="M379.195,48.661l11.022,1.252l-5.184,45.62l19.519,2.217l-1.026,9.032l-30.54-3.47L379.195,48.661z"/>
		<path fill="#FFFEF8" d="M418.414,53.422l10.935,1.866l-7.722,45.258l19.364,3.304l-1.529,8.96l-30.299-5.169L418.414,53.422z"/>
		<path fill="#FFFEF8" d="M457.32,60.543l10.832,2.396l-11.88,53.705l-10.831-2.396L457.32,60.543z"/>
		<path fill="#FFFEF8" d="M495.16,109.091l0.148,0.043l10.455-36.19l9.77,2.822l-15.267,52.842l-12.138-3.507l-2.334-40.767
			l-0.148-0.043l-10.69,37.004l-9.77-2.823l15.267-52.841l12.285,3.549L495.16,109.091z"/>
		<path fill="#FFFEF8" d="M547.063,101.928c0.194-1.086,0.223-2.142,0.088-3.168c-0.137-1.026-0.461-1.963-0.975-2.811
			c-0.515-0.847-1.294-1.485-2.339-1.912c-2.473-1.01-4.819-0.358-7.038,1.952c-2.221,2.311-4.631,6.652-7.232,13.023
			c-1.242,3.043-2.274,5.84-3.093,8.389c-0.82,2.55-1.334,4.795-1.543,6.734c-0.21,1.94-0.04,3.562,0.509,4.868
			c0.548,1.306,1.559,2.259,3.033,2.861c0.617,0.252,1.362,0.363,2.236,0.331c0.872-0.031,1.766-0.249,2.68-0.653
			c0.914-0.403,1.793-1.028,2.639-1.876c0.846-0.847,1.549-1.96,2.112-3.34l2.126-5.206l-6.774-2.767l3.087-7.56l16.617,6.786
			l-11.213,27.457l-7.56-3.087l1.922-4.707l-0.143-0.058c-2.052,1.492-4.115,2.3-6.19,2.423c-2.075,0.122-4.325-0.31-6.75-1.3
			c-3.138-1.281-5.471-2.873-6.996-4.771c-1.527-1.899-2.384-4.219-2.568-6.957c-0.186-2.739,0.216-5.861,1.205-9.369
			c0.987-3.507,2.385-7.472,4.19-11.894c1.748-4.279,3.554-7.923,5.422-10.933c1.866-3.01,3.907-5.324,6.122-6.944
			c2.214-1.62,4.639-2.529,7.272-2.73c2.633-0.201,5.591,0.369,8.872,1.708c5.609,2.291,9.083,5.332,10.42,9.123
			c1.336,3.791,0.946,8.279-1.17,13.46l-9.842-4.019C546.579,104.032,546.87,103.013,547.063,101.928z"/>
	</g>
	<g>
		<path fill="#FFFFFF" d="M299.664,321.492h-3.074c-166.694,0.61-247.372,49.967-257.288,56.474
			c0.185,61.494,1.002,109.643,3.572,123.222c14.042,74.184,40.919,130.104,72.169,172.183
			c42.037-12.548,101.966-23.956,181.547-24.247h3.074c79.58,0.291,139.51,11.699,181.547,24.247
			c31.251-42.079,58.128-98,72.169-172.183c2.57-13.579,3.387-61.728,3.572-123.222C547.036,371.46,466.357,322.102,299.664,321.492
			z M164.98,434.223c0,0,9.386,0.411,15.02,2.746c13.989,5.797,34.267,7.391,42.472,7.813c24.26-3.769,50.149-4.941,68.981,1.674
			l2.042,3.172c0,0-31.564-14.117-140.92,19.51l0.011-0.077l-16.099-20.012h41.746L164.98,434.223z M125.848,488.358
			c0,0,156.161-54.913,237.444-26.358l3.534,5.491c0,0-53.453-24.711-242.745,33.497L125.848,488.358z M441.925,546.841H116.792
			l6.185-37.615c155.719-45.029,382.561-43.382,382.561-43.382C479.695,488.908,441.925,546.841,441.925,546.841z"/>
		<path fill="#FFFFFF" d="M296.59,254.171c-166.753,0.61-247.431,50.003-257.301,56.482c-0.024,13.779-0.037,27.304-0.031,40.414
			c9.752-6.408,90.431-55.892,257.332-56.503h3.074c166.901,0.611,247.58,50.095,257.332,56.503
			c0.006-13.109-0.008-26.634-0.031-40.414c-9.87-6.479-90.548-55.872-257.301-56.482H296.59z"/>
		<path fill="#FFFFFF" d="M296.59,159.92h3.074c165.777,0.607,246.457,49.411,257.094,56.349
			c-0.017-10.935-0.028-21.782-0.028-32.457c0,0-79.502-56.259-257.073-56.909v-0.03c-0.519,0-1.012,0.014-1.53,0.015
			c-0.517-0.001-1.011-0.015-1.53-0.015v0.03c-177.571,0.65-257.073,56.909-257.073,56.909c0,10.675-0.011,21.522-0.028,32.457
			C50.132,209.332,130.812,160.527,296.59,159.92z"/>
		<path fill="#FFFFFF" d="M299.664,743.376h-3.074c-38.443,0.141-72.287,2.884-101.77,7.088
			c47.723,32.777,90.305,43.717,101.777,46.217v0.62c0,0,0.539-0.094,1.53-0.296c0.99,0.201,1.53,0.296,1.53,0.296v-0.62
			c11.472-2.5,54.054-13.44,101.777-46.217C371.951,746.26,338.107,743.516,299.664,743.376z"/>
		<path fill="#FFFFFF" d="M299.664,186.849h-3.074c-166.03,0.608-246.709,49.563-257.147,56.383
			c-0.031,13.507-0.066,27.042-0.097,40.456c10.078-6.604,90.756-55.837,257.245-56.446h3.074
			c166.488,0.609,247.167,49.842,257.245,56.446c-0.031-13.414-0.066-26.949-0.097-40.456
			C546.372,236.412,465.693,187.456,299.664,186.849z"/>
		<path fill="#FFFFFF" d="M299.664,676.054h-3.074c-68.978,0.253-123.169,8.863-163.775,19.322
			c10.881,12.385,22.072,23.32,33.266,32.956c35.577-6.819,78.895-11.695,130.509-11.884h3.074
			c51.614,0.189,94.932,5.066,130.509,11.884c11.194-9.636,22.385-20.571,33.266-32.956
			C422.833,684.916,368.642,676.306,299.664,676.054z"/>
	</g>
</g>
</svg>
